<svg width="141" height="95" viewBox="0 0 141 95" fill="none" xmlns="http://www.w3.org/2000/svg">
<path d="M9.51644 3.96028H7.40968V1.93939C6.9235 1.54972 6.11321 1.22347 5.26691 1.06035L5.39295 0.371617C5.42896 0.244745 5.519 0.208496 5.71707 0.208496C6.68942 0.208496 8.37303 0.308181 9.08429 0.471302C9.4084 0.570988 9.57046 0.734109 9.57046 1.06035L9.50744 2.46501V3.96935L9.51644 3.96028ZM24.6509 9.70578L10.1647 9.90515L10.3267 8.63643C12.5325 8.67268 19.0419 8.57299 21.0226 8.43706L21.995 7.91144C22.9313 7.91144 24.3628 8.01113 24.948 8.138C25.2091 8.20144 25.3352 8.33737 25.3352 8.56393C25.3352 9.08954 25.2091 9.44297 25.0471 9.54266C24.948 9.64234 24.822 9.70578 24.6599 9.70578H24.6509ZM10.3267 8.62737L10.1647 9.89609C8.25599 9.93233 7.40968 9.04423 7.40968 7.34958V3.50717H9.51644V7.74832C9.51644 8.40081 9.71451 8.62737 10.3267 8.62737ZM25.2361 13.8835L26.3345 13.4304C27.5049 13.4666 29.1255 13.6297 29.8638 13.8835C30.0889 13.9469 30.2509 14.1101 30.2509 14.3729C30.2509 14.8622 29.9268 15.3153 29.6387 15.4513C28.7654 15.3516 26.9197 15.2881 25.9744 15.2881C23.7056 15.2519 8.53509 15.4513 6.88749 15.551C6.0772 15.6144 4.49263 15.9134 3.70934 16.1672C2.57493 15.8047 1.40451 15.2247 0.666242 14.5994C0.567206 14.4997 0.540196 14.4363 0.567206 14.3366L0.765278 13.8835C1.80065 14.0829 3.25918 14.2097 4.23153 14.2097C6.17624 14.246 22.9673 14.0466 25.2361 13.8835ZM16.0348 23.6073H14.8014C14.7023 22.3024 14.6393 19.9824 14.6393 18.6503V14.8622H16.62V18.0612C16.62 19.5655 16.3949 22.103 16.0348 23.6073ZM24.786 28.211L10.5878 28.2744L10.7139 27.0329C12.8837 27.0691 19.2039 27.0329 21.1486 26.9332L22.121 26.4076C23.0573 26.3713 24.4889 26.5073 25.1011 26.6341C25.2992 26.6704 25.4882 26.7973 25.4882 27.0238C25.4882 27.5766 25.2901 27.9029 25.1641 28.0388C25.0651 28.1657 24.939 28.2019 24.777 28.2019L24.786 28.211ZM10.7229 27.0329L10.6238 28.2744C8.55309 28.2744 7.83283 27.5585 7.83283 25.8276V22.7917H9.90358V26.181C9.90358 26.7701 10.1017 27.0329 10.7139 27.0329H10.7229ZM9.91259 23.4442H7.84184V21.3599C7.29264 20.9702 6.41932 20.644 5.537 20.4446L5.69906 19.7921C5.73508 19.6652 5.7981 19.5927 6.02318 19.5927C6.99553 19.5927 8.74216 19.7196 9.52545 19.8827C9.81355 19.9462 9.97561 20.1093 9.97561 20.4718L9.91259 21.8764V23.4442Z" fill="white"/>
<path d="M49.896 18.8134L50.7874 18.4328C51.7327 18.4599 53.0562 18.5959 53.6504 18.7862C53.8395 18.8406 53.9745 18.9765 53.9745 19.1668C53.9745 19.5474 53.7044 19.8737 53.4884 19.9824C52.7591 19.9008 51.2736 19.8465 50.4903 19.8465C48.5996 19.8193 35.7429 19.9824 34.3924 20.064C33.7172 20.1183 32.4477 20.363 31.8265 20.5805C30.8812 20.3087 29.9628 19.8465 29.3416 19.3571C29.2606 19.3027 29.2336 19.2484 29.2606 19.1668L29.4226 18.8134C30.2599 18.9765 31.4484 19.0852 32.2317 19.0852C33.8252 19.1124 48.0324 18.9221 49.896 18.8134ZM41.8471 29.6881H40.9828C40.9288 28.4375 40.9018 26.2354 40.9018 24.9848V19.493H42.3333V24.4954C42.3333 25.8276 42.1442 28.22 41.8471 29.6881ZM48.2214 6.71522L46.7899 6.36179C46.3578 5.9268 45.6285 5.54618 44.8452 5.3015L45.0073 4.73057C45.0343 4.64901 45.0883 4.62183 45.2504 4.62183C46.0877 4.6762 47.3301 4.89369 48.0324 5.16556C48.1944 5.21994 48.2755 5.32868 48.2755 5.49181L48.2214 6.71522ZM36.4182 7.50363L34.9056 7.23177C34.5275 6.87834 33.8252 6.55209 33.123 6.41616L33.231 5.84524C33.231 5.79086 33.285 5.73649 33.4741 5.73649C34.2844 5.73649 35.5269 5.84524 36.2021 6.03554C36.3912 6.08992 36.4452 6.19866 36.4452 6.41616L36.4182 7.50363ZM35.986 16.3394H35.1757C35.0677 16.0131 35.0137 15.4694 35.0137 15.0344L34.9056 7.20458L36.4182 7.39489L36.3642 14.7897C36.3642 15.5781 36.2021 16.0403 35.986 16.3394ZM47.8973 14.3819H46.7899V6.36179L48.2214 6.52491L48.1674 12.0438C48.1674 12.7779 48.0594 13.7566 47.8973 14.3819ZM47.7893 14.3004L48.4915 14.4907C48.5996 14.5178 48.6806 14.5994 48.6806 14.7082C48.6806 14.9528 48.5726 15.1975 48.4645 15.2791C45.9796 15.2791 38.5249 15.3063 36.2021 15.3335L36.2291 14.4091L46.8439 14.3547L47.7893 14.3004Z" fill="white"/>
<path d="M73.8807 21.1604H73.0164C72.9354 20.0458 72.9354 18.0611 72.9354 16.8377V3.86956C72.4222 3.32583 71.5579 2.86365 70.5855 2.56459L70.7476 2.02086C70.7746 1.9393 70.8286 1.91211 71.0177 1.91211C71.882 1.9393 73.4216 2.26554 74.1238 2.53741C74.3399 2.61897 74.4209 2.78209 74.4209 3.02677L74.3669 4.35893V16.2668C74.3669 18.0883 74.1778 19.9098 73.8807 21.1604ZM75.8254 26.8153L64.1842 26.8697L64.1572 25.9725C65.9399 25.9997 71.2878 25.9725 72.8543 25.8909L73.6376 25.4559C74.3939 25.4559 75.5553 25.5375 76.0415 25.6462C76.2036 25.6734 76.3386 25.7822 76.3386 25.9453C76.3386 26.3531 76.2036 26.5978 76.0955 26.7065C76.0145 26.7881 75.9335 26.8153 75.8254 26.8153ZM64.3463 5.85421L62.5636 6.37076C62.3205 5.85421 61.6723 5.22891 60.9971 4.84829L61.2672 4.38612C61.3212 4.30455 61.4022 4.27737 61.5373 4.30455C62.3746 4.49486 63.617 5.0386 64.0762 5.36484C64.2652 5.47359 64.3463 5.63671 64.3463 5.85421ZM54.5957 18.1155L54.3527 17.898C54.2986 17.8164 54.3256 17.7621 54.4067 17.6805C58.3771 14.3637 61.4562 10.041 62.5636 6.37076L64.3463 5.85421C64.3463 6.04451 64.3193 6.23482 64.2923 6.37076C63.0498 10.5303 59.6466 14.8531 54.8388 18.0883C54.7308 18.1699 54.6498 18.1699 54.5957 18.1155ZM68.1006 16.4571L61.8614 10.5032L66.8042 13.5753L67.8575 14.0103C68.3167 14.554 68.9109 15.3968 69.181 15.859C69.3431 16.158 69.3971 16.3755 69.3431 16.5115C69.262 16.7833 68.8839 16.9465 68.6408 16.8649C68.5058 16.8377 68.2627 16.6474 68.1006 16.4571ZM66.8042 13.5753L66.7231 13.7112L61.8614 10.5032L62.4016 9.63318L66.8042 13.5753ZM63.482 22.4654H61.9964V20.5895C61.5643 20.2632 60.808 20.0186 60.0787 19.8826L60.1868 19.3661C60.2138 19.2573 60.2948 19.2301 60.4299 19.2301C61.2131 19.2301 62.5636 19.3117 63.1578 19.4476C63.4009 19.502 63.509 19.6379 63.509 19.9098L63.482 21.0245V22.4654ZM64.1572 25.9725L64.2112 26.8697C62.5366 26.8697 61.9964 26.3259 61.9964 24.885V22.3023H63.482V25.2656C63.482 25.755 63.671 25.9725 64.1572 25.9725Z" fill="white"/>
<path d="M106.247 23.0998H105.077C104.951 21.7948 104.915 19.2211 104.915 17.7167V2.44679C104.33 1.7943 103.294 1.20526 102.124 0.851826L102.349 0.135905C102.385 0.0362201 102.475 0.0090332 102.709 0.0090332C103.808 0.0452824 105.725 0.434961 106.599 0.78839C106.887 0.888075 106.986 1.07838 106.986 1.40463L106.887 3.03584V16.9646C106.887 19.212 106.662 21.5682 106.238 23.0998H106.247ZM112.667 12.7234L106.545 12.8231V11.6178L109.336 11.5181L110.371 10.9019C111.307 10.8657 112.604 10.9382 113.189 11.065C113.45 11.1285 113.612 11.355 113.612 11.5544C113.612 12.1072 113.414 12.4969 113.225 12.5966C113.099 12.6962 112.865 12.7234 112.676 12.7234H112.667ZM108.741 29.9508L94.9663 30.0143L95.0924 28.7727C97.1631 28.809 103.231 28.7727 105.077 28.6731L106.049 28.1203C106.986 28.1203 108.417 28.2199 109.029 28.3831C109.227 28.4193 109.417 28.5462 109.417 28.7727C109.417 29.3255 109.218 29.6518 109.092 29.7877C108.993 29.9146 108.867 29.9508 108.732 29.9508H108.741ZM99.1799 10.6029C99.1799 14.554 96.1638 17.2908 92.0493 17.2908C87.9348 17.2908 84.8197 14.554 84.8197 10.6029C84.8197 6.65169 87.8988 3.97832 92.0493 3.97832C96.1998 3.97832 99.1799 6.65169 99.1799 10.6029ZM97.1721 10.6029C97.1721 7.37668 94.9393 5.48266 92.0493 5.48266C89.1592 5.48266 86.9264 7.37668 86.9264 10.6029C86.9264 13.829 89.1592 15.723 92.0493 15.723C94.9393 15.723 97.1721 13.829 97.1721 10.6029ZM94.3181 24.8306H92.2474V22.7735C91.7252 22.3838 90.8248 22.0576 89.9785 21.8945L90.1046 21.2057C90.1406 21.0789 90.2306 21.0426 90.4287 21.0426C91.4011 21.0426 93.1477 21.1423 93.895 21.3054C94.1831 21.3689 94.3451 21.5682 94.3451 21.8945L94.3091 23.2991V24.8306H94.3181ZM95.0924 28.7818L94.9934 30.0233C92.9496 30.0233 92.2384 29.3074 92.2384 27.5765V24.5407H94.3091V27.93C94.3091 28.519 94.5342 28.7818 95.0834 28.7818H95.0924Z" fill="white"/>
<path d="M135.976 18.0067L137.075 17.5173C138.245 17.5536 139.866 17.7439 140.604 17.9704C140.829 18.0339 140.991 18.2333 140.991 18.4598C140.991 18.9854 140.667 19.4023 140.379 19.5382C139.505 19.4385 137.66 19.3751 136.714 19.3751C134.446 19.3751 119.275 19.5382 117.628 19.6379C116.817 19.7013 115.233 20.0276 114.449 20.2904C113.315 19.9279 112.145 19.3117 111.406 18.6954C111.307 18.632 111.28 18.5686 111.307 18.4326L111.505 18.0067C112.541 18.2061 113.999 18.3329 114.972 18.3329C116.916 18.3692 133.707 18.1336 135.976 18.0067ZM126.478 31.1561H125.307C125.208 29.688 125.181 26.8787 125.181 25.3834V18.8586H127.162V24.7309C127.162 26.3984 126.874 29.398 126.478 31.1561ZM134.194 3.68828L132.213 3.23517C131.691 2.70955 130.853 2.25644 129.908 1.96644L130.133 1.25052C130.169 1.12365 130.232 1.0874 130.457 1.0874C131.493 1.15084 133.086 1.44989 133.923 1.77614C134.149 1.87582 134.248 2.00269 134.248 2.20206L134.185 3.7064L134.194 3.68828ZM120.094 4.66701L118.051 4.30452C117.601 3.87859 116.754 3.48891 115.908 3.28954L116.07 2.57362C116.07 2.51018 116.133 2.44675 116.358 2.44675C117.366 2.4105 118.987 2.57362 119.824 2.80924C120.049 2.87267 120.112 3.03579 120.112 3.2986L120.076 4.66701H120.094ZM119.509 15.1702H118.411C118.249 14.7171 118.186 14.0284 118.186 13.5027L118.06 4.26827L120.103 4.49482L120.04 13.1765C120.04 14.1915 119.815 14.7715 119.518 15.1702H119.509ZM133.77 12.6871H132.213V3.2261L134.194 3.45266L134.131 9.85064C134.131 10.7297 134.004 11.935 133.77 12.6871ZM133.644 12.5875L134.491 12.814C134.617 12.8774 134.716 12.9771 134.716 13.104C134.716 13.4665 134.59 13.7927 134.455 13.8834C131.439 13.8834 122.687 13.9196 119.806 13.9468L119.869 12.7053L132.411 12.6418L133.644 12.5784V12.5875Z" fill="white"/>
<path d="M44.242 10.8837C42.0362 11.1647 41.8471 11.3912 41.6131 13.983C41.379 11.3912 41.1809 11.1647 38.9841 10.8837C41.1899 10.6028 41.379 10.3762 41.6131 7.78442C41.8471 10.3762 42.0452 10.6028 44.242 10.8837Z" fill="white"/>
<path d="M129.26 7.91132C126.676 8.23756 126.451 8.50037 126.172 11.5453C125.893 8.50037 125.667 8.23756 123.084 7.91132C125.667 7.58508 125.893 7.32227 126.172 4.27734C126.451 7.32227 126.676 7.58508 129.26 7.91132Z" fill="white"/>
</svg>
