<svg width="270" height="30" viewBox="0 0 270 30" fill="none" xmlns="http://www.w3.org/2000/svg">
<path d="M12.6285 4.07V5.33C11.2185 5.33 6.89848 5.42 6.05848 5.51C5.48848 5.54 4.43848 5.75 3.86848 5.93C3.08848 5.66 2.24848 5.15 1.64848 4.67C1.52848 4.58 1.52848 4.49 1.55848 4.43L1.73848 4.04C2.51848 4.19 3.53848 4.25 4.25848 4.25C5.36848 4.25 11.2485 4.16 12.6285 4.07ZM14.8785 5.48L12.3585 5.33L12.5385 4.07L13.5585 3.56C13.6785 3.5 13.8885 3.5 14.0385 3.56C14.4285 3.71 15.0885 4.07 15.3285 4.22C15.4485 4.34 15.4785 4.46 15.3885 4.61L14.8785 5.48ZM0.778477 19.16L0.418477 18.77C0.358477 18.68 0.328477 18.62 0.418477 18.53C6.08848 14.78 10.4085 9.86 12.3585 5.33L13.7385 4.88L14.8785 5.48C12.9885 10.49 7.52848 15.89 1.07848 19.1C0.958477 19.16 0.868477 19.19 0.778477 19.16ZM21.9585 17.27H20.6985C20.5485 16.31 20.5185 14.15 20.5185 13.01V2.84C19.9785 2.21 19.0485 1.64 17.9685 1.31L18.2085 0.559999C18.2385 0.47 18.3285 0.439998 18.5685 0.439998C19.6485 0.47 21.5085 0.859998 22.3485 1.19C22.6185 1.31 22.7385 1.49 22.7085 1.82L22.6485 3.38V12.32C22.6485 14.15 22.3785 16.13 21.9585 17.27ZM10.8585 20.42L8.54848 20.36C8.21848 20.03 7.61848 19.67 7.01848 19.46L7.16848 18.86C7.19848 18.77 7.28848 18.74 7.46848 18.74C8.33848 18.74 9.92848 18.89 10.7985 19.04L10.8585 20.42ZM10.6185 29H9.41848C9.26848 28.61 9.14848 28.07 9.11848 27.56L8.54848 20.36L10.8585 20.15L11.0385 27.17C11.0385 28.1 10.9185 28.58 10.6185 29ZM22.1385 28.04L10.8285 28.19L10.8585 26.84C13.2585 26.84 17.4285 26.75 19.4085 26.63L20.2485 26.42C20.8485 26.24 21.2085 26.21 21.5685 26.39L22.2885 26.72C22.4385 26.81 22.4985 26.9 22.4985 27.08C22.4985 27.5 22.3185 27.89 22.1385 28.04ZM20.0685 18.83L20.2185 20.24C17.2185 20.21 13.6785 20.33 10.7685 20.42V19.04C12.9885 19.01 17.8785 18.95 20.0685 18.83ZM22.4385 20.39L20.1585 20.24L19.9785 18.83L20.9685 18.38C21.1185 18.32 21.2985 18.32 21.4485 18.38C21.7785 18.53 22.4385 18.83 22.6785 19.01C22.7985 19.07 22.7985 19.19 22.7385 19.34L22.4385 20.39ZM21.7185 26.51L20.0085 26.54L20.1585 20.24L22.4385 20.36C22.3485 22.28 22.0785 24.53 21.7185 26.51ZM49.3431 21.74H48.1131C47.9631 20.54 47.9331 17.96 47.9331 16.55V2.84C47.3931 2.21 46.4631 1.64 45.3831 1.31L45.6231 0.559999C45.6531 0.47 45.7431 0.439998 45.9831 0.439998C47.0631 0.47 48.9231 0.859998 49.7631 1.19C50.0331 1.31 50.1531 1.49 50.1231 1.82L50.0631 3.38V15.83C50.0631 17.93 49.7931 20.27 49.3431 21.74ZM55.2831 12.14L49.6431 12.23V10.94L52.1631 10.85L53.1231 10.28C54.0231 10.25 55.2231 10.31 55.7631 10.43C56.0331 10.49 56.2131 10.7 56.2131 10.94C56.2131 11.45 56.0331 11.87 55.8531 11.99C55.7031 12.11 55.4631 12.14 55.2831 12.14ZM51.7131 28.01L39.1731 28.1L39.4731 26.81C41.3331 26.84 46.5531 26.78 48.2331 26.72L49.1931 26.18C50.0931 26.18 51.4431 26.27 52.0431 26.39C52.2531 26.45 52.4331 26.6 52.4331 26.81C52.4331 27.38 52.2231 27.74 52.1031 27.89C51.9831 27.98 51.8631 28.01 51.7131 28.01ZM48.3231 14.21V15.38C43.9431 16.79 37.8231 17.81 33.6531 18.08C33.3231 18.11 32.9931 18.11 32.6931 18.11C31.7631 18.11 31.1031 17.54 30.8031 16.67C30.7131 16.37 30.6831 15.92 30.6831 15.32V11.78H32.8731V15.83C32.8731 16.16 32.9931 16.34 33.4131 16.34C37.4031 16.28 44.1831 15.44 48.3231 14.21ZM40.1031 3.95V5.27C39.0231 5.27 34.7031 5.36 33.8331 5.42C33.2931 5.45 32.3031 5.66 31.6431 5.87C30.8031 5.54 30.0231 5.06 29.4231 4.58C29.3031 4.49 29.3031 4.37 29.3331 4.28L29.5431 3.89C30.2631 4.07 31.3131 4.13 32.0331 4.13C33.2331 4.13 38.7831 4.01 40.1031 3.95ZM42.2931 5.39L39.9231 5.27L39.9831 3.95L40.9131 3.5C41.0331 3.41 41.2431 3.41 41.3931 3.5C41.7231 3.65 42.3231 4.01 42.5631 4.19C42.6831 4.31 42.7131 4.43 42.6231 4.58L42.2931 5.39ZM41.7831 9.8H39.9231C39.9831 8.9 39.9831 6.11 39.9231 5.24L42.2931 5.33C42.2631 6.53 41.9931 8.75 41.7831 9.8ZM42.1431 11.03L32.6031 11.27V9.98C33.8331 9.98 38.4531 9.86 39.4431 9.77L40.0731 9.62C40.6731 9.47 41.3631 9.47 41.6031 9.62L42.2331 9.98C42.3531 10.04 42.4131 10.16 42.4131 10.25C42.4131 10.58 42.2631 10.91 42.1431 11.03ZM39.4731 26.81L39.1731 28.1C37.1931 28.1 36.5331 27.41 36.5331 25.76V23.42H38.7231V26.03C38.7231 26.57 38.9331 26.81 39.4731 26.81ZM38.7231 24.17H36.5331V22.34C36.0531 21.95 35.2131 21.62 34.4031 21.44L34.5531 20.78C34.5831 20.66 34.7031 20.6 34.8831 20.6C35.8731 20.6 37.5831 20.72 38.3331 20.87C38.6331 20.96 38.7531 21.14 38.7531 21.47L38.7231 22.79V24.17ZM32.8731 13.58H30.6831V11.39C30.2331 11.06 29.5731 10.79 28.8831 10.64L29.0031 10.04C29.0331 9.95 29.1231 9.86 29.3031 9.86C30.1431 9.86 32.1231 9.89 32.9331 9.98L32.8731 11.27V13.58ZM68.2377 6.05L65.6577 6.68C65.3877 6.11 64.6077 5.42 63.8277 5L64.1577 4.37C64.2477 4.28 64.3377 4.22 64.5177 4.25C65.5677 4.46 67.2477 5.06 67.8777 5.48C68.1177 5.6 68.2377 5.81 68.2377 6.05ZM57.5277 20.93L57.1677 20.63C57.1077 20.54 57.1077 20.48 57.2277 20.33C61.5177 16.22 64.6677 11.03 65.6577 6.68L68.2377 6.05C68.2377 6.29 68.2077 6.53 68.1477 6.71C67.0977 11.57 63.3777 16.88 57.8577 20.93C57.7377 20.99 57.6477 20.99 57.5277 20.93ZM71.2677 19.49L64.8777 12.29L70.0077 15.56L71.4777 16.31C71.9877 17.03 72.6477 18.11 72.9177 18.74C73.0977 19.16 73.1277 19.46 73.0377 19.67C72.8577 20.03 72.2877 20.21 71.9577 20.09C71.7777 20.03 71.4777 19.73 71.2677 19.49ZM70.0077 15.56L69.8877 15.71L64.8777 12.29L65.5977 11L70.0077 15.56ZM84.2577 14.12L78.6177 14.21V12.92L81.1377 12.83L82.0977 12.26C82.9977 12.23 84.1977 12.29 84.7377 12.41C85.0077 12.47 85.1877 12.68 85.1877 12.89C85.1877 13.43 85.0077 13.85 84.8277 13.97C84.6777 14.09 84.4377 14.12 84.2577 14.12ZM78.3177 29.24H77.0877C76.9677 27.98 76.9077 25.04 76.9077 23.72V2.84C76.3677 2.21 75.4077 1.64 74.3577 1.31L74.5677 0.559999C74.5977 0.47 74.6877 0.439998 74.8977 0.439998C76.0077 0.47 77.8977 0.859998 78.7377 1.19C79.0077 1.31 79.1277 1.49 79.1277 1.82L79.0377 3.38V22.97C79.0377 24.71 78.7677 27.53 78.3177 29.24ZM107.978 29.21H106.748C106.658 27.86 106.568 25.13 106.568 23.75V18.83H108.698V23.06C108.698 24.65 108.398 27.56 107.978 29.21ZM116.528 18.08L117.608 17.63C118.718 17.66 120.278 17.84 120.968 18.08C121.208 18.14 121.358 18.32 121.358 18.56C121.358 19.07 121.028 19.55 120.728 19.67C119.918 19.58 118.148 19.52 117.248 19.52C115.178 19.49 101.438 19.67 99.8481 19.76C99.0981 19.82 97.5681 20.12 96.8181 20.36C95.7381 20 94.6281 19.4 93.9081 18.77C93.8181 18.71 93.7881 18.62 93.8181 18.5L94.0281 18.08C95.0181 18.26 96.3981 18.38 97.3581 18.38C99.1581 18.41 114.428 18.23 116.528 18.08ZM102.278 0.859998L102.488 0.559999C105.338 1.07 108.548 1.13 110.798 1.13C111.068 1.13 111.188 1.22 111.248 1.37C111.368 1.67 111.338 2.3 111.188 2.54C111.098 2.69 110.948 2.75 110.768 2.75C108.998 2.75 106.418 2.81 105.008 2.93C104.708 2.93 104.558 2.93 104.378 2.81C103.688 2.48 102.848 1.79 102.308 1.1C102.218 0.979998 102.248 0.919999 102.278 0.859998ZM114.428 4.67L115.418 4.19C116.348 4.22 117.698 4.4 118.268 4.61C118.478 4.67 118.598 4.82 118.598 4.97C118.598 5.51 118.298 5.96 118.058 6.08C117.428 5.99 115.808 5.96 115.118 5.96C113.438 5.96 103.028 6.05 101.438 6.14C100.838 6.17 99.6681 6.41 99.0681 6.62C98.1981 6.32 97.1481 5.75 96.4881 5.21C96.3981 5.15 96.3681 5.03 96.3981 4.97L96.6081 4.58C97.5081 4.73 98.8281 4.85 99.5481 4.85C101.108 4.88 112.628 4.76 114.428 4.67ZM114.188 11.69C114.188 14.45 111.368 16.31 107.528 16.31C103.658 16.31 100.808 14.45 100.808 11.69C100.808 8.96 103.658 7.1 107.528 7.1C111.368 7.1 114.188 8.96 114.188 11.69ZM112.028 11.69C112.028 9.74 110.108 8.54 107.528 8.54C104.918 8.54 102.998 9.74 102.998 11.69C102.998 13.7 104.918 14.87 107.528 14.87C110.108 14.87 112.028 13.7 112.028 11.69ZM138.933 2.9L136.143 3.32C135.873 2.9 135.243 2.39 134.553 2.06L134.943 1.43C135.003 1.34 135.123 1.31 135.333 1.34C136.413 1.49 137.913 1.94 138.573 2.3C138.813 2.45 138.933 2.63 138.933 2.9ZM125.733 13.07L125.403 12.65C125.343 12.56 125.373 12.47 125.493 12.41C130.413 10.01 134.283 6.62 136.143 3.32L138.933 2.9C138.933 3.2 138.843 3.41 138.753 3.59C136.473 7.61 131.793 11.03 126.033 13.07C125.883 13.13 125.793 13.13 125.733 13.07ZM145.503 16.19L146.583 15.71C147.693 15.74 149.253 15.92 149.943 16.16C150.183 16.22 150.333 16.4 150.333 16.64C150.333 17.18 150.003 17.63 149.703 17.75C148.893 17.66 147.123 17.6 146.223 17.6C144.153 17.6 130.413 17.75 128.823 17.84C128.073 17.9 126.543 18.2 125.793 18.44C124.713 18.08 123.603 17.48 122.883 16.85C122.793 16.79 122.763 16.7 122.793 16.58L123.003 16.16C123.993 16.34 125.373 16.46 126.333 16.49C128.133 16.52 143.403 16.31 145.503 16.19ZM137.853 12.92L135.723 12.59C135.393 12.2 134.733 11.81 134.073 11.6L134.253 10.94C134.313 10.88 134.373 10.79 134.613 10.79C135.513 10.82 136.983 11 137.703 11.21C137.943 11.27 138.033 11.45 137.973 11.69L137.853 12.92ZM137.763 16.58H135.723V12.59L137.853 12.92L137.763 16.58ZM146.043 11.6L135.783 6.44L142.953 8.45L144.933 8.81C145.683 9.23 146.673 9.95 147.123 10.34C147.453 10.64 147.603 10.88 147.603 11.09C147.603 11.48 147.183 11.84 146.883 11.87C146.673 11.9 146.343 11.75 146.043 11.6ZM142.953 8.45L142.833 8.63L135.783 6.44L136.653 5.42L142.953 8.45ZM145.263 28.19L132.093 28.25L132.393 26.96C134.373 26.99 140.013 26.96 141.813 26.87L142.773 26.33C143.673 26.33 145.023 26.42 145.623 26.57C145.833 26.6 145.983 26.75 145.983 26.96C145.983 27.53 145.803 27.89 145.653 28.04C145.563 28.16 145.443 28.19 145.263 28.19ZM132.423 26.96L132.093 28.25C130.173 28.25 129.483 27.53 129.483 25.91V23.21H131.673V26.18C131.673 26.72 131.853 26.96 132.423 26.96ZM131.673 23.99H129.483V22.16C128.973 21.77 128.163 21.44 127.353 21.26L127.533 20.6C127.563 20.48 127.623 20.42 127.833 20.42C128.823 20.42 130.533 20.51 131.283 20.69C131.583 20.75 131.733 20.93 131.733 21.26L131.673 22.61V23.99ZM172.853 4.07V5.33C171.443 5.33 167.123 5.42 166.283 5.51C165.713 5.54 164.663 5.75 164.093 5.93C163.313 5.66 162.473 5.15 161.873 4.67C161.753 4.58 161.753 4.49 161.783 4.43L161.963 4.04C162.743 4.19 163.763 4.25 164.483 4.25C165.593 4.25 171.473 4.16 172.853 4.07ZM175.103 5.48L172.583 5.33L172.763 4.07L173.783 3.56C173.903 3.5 174.113 3.5 174.263 3.56C174.653 3.71 175.313 4.07 175.553 4.22C175.673 4.34 175.703 4.46 175.613 4.61L175.103 5.48ZM161.003 19.16L160.643 18.77C160.583 18.68 160.553 18.62 160.643 18.53C166.313 14.78 170.633 9.86 172.583 5.33L173.963 4.88L175.103 5.48C173.213 10.49 167.753 15.89 161.303 19.1C161.183 19.16 161.093 19.19 161.003 19.16ZM182.183 17.27H180.923C180.773 16.31 180.743 14.15 180.743 13.01V2.84C180.203 2.21 179.273 1.64 178.193 1.31L178.433 0.559999C178.463 0.47 178.553 0.439998 178.793 0.439998C179.873 0.47 181.733 0.859998 182.573 1.19C182.843 1.31 182.963 1.49 182.933 1.82L182.873 3.38V12.32C182.873 14.15 182.603 16.13 182.183 17.27ZM171.083 20.42L168.773 20.36C168.443 20.03 167.843 19.67 167.243 19.46L167.393 18.86C167.423 18.77 167.513 18.74 167.693 18.74C168.563 18.74 170.153 18.89 171.023 19.04L171.083 20.42ZM170.843 29H169.643C169.493 28.61 169.373 28.07 169.343 27.56L168.773 20.36L171.083 20.15L171.263 27.17C171.263 28.1 171.143 28.58 170.843 29ZM182.363 28.04L171.053 28.19L171.083 26.84C173.483 26.84 177.653 26.75 179.633 26.63L180.473 26.42C181.073 26.24 181.433 26.21 181.793 26.39L182.513 26.72C182.663 26.81 182.723 26.9 182.723 27.08C182.723 27.5 182.543 27.89 182.363 28.04ZM180.293 18.83L180.443 20.24C177.443 20.21 173.903 20.33 170.993 20.42V19.04C173.213 19.01 178.103 18.95 180.293 18.83ZM182.663 20.39L180.383 20.24L180.203 18.83L181.193 18.38C181.343 18.32 181.523 18.32 181.673 18.38C182.003 18.53 182.663 18.83 182.903 19.01C183.023 19.07 183.023 19.19 182.963 19.34L182.663 20.39ZM181.943 26.51L180.233 26.54L180.383 20.24L182.663 20.36C182.573 22.28 182.303 24.53 181.943 26.51ZM211.338 18.65H210.078C209.928 17.6 209.898 15.23 209.898 14.12V2.84C209.358 2.21 208.428 1.64 207.348 1.31L207.588 0.559999C207.618 0.47 207.708 0.439998 207.948 0.439998C209.028 0.47 210.888 0.859998 211.758 1.19C211.998 1.31 212.118 1.49 212.088 1.82L212.028 3.38V13.43C212.028 14.93 211.728 17.33 211.338 18.65ZM211.758 23.36C211.758 26.72 209.058 29 205.308 29C201.558 29 198.828 26.72 198.828 23.36C198.828 20.09 201.558 17.93 205.308 17.93C209.058 17.93 211.758 20.09 211.758 23.36ZM209.538 23.36C209.538 20.84 207.768 19.34 205.308 19.34C202.848 19.34 201.048 20.84 201.048 23.36C201.048 25.85 202.848 27.32 205.308 27.32C207.768 27.32 209.538 25.85 209.538 23.36ZM203.628 9.74C203.628 13.28 200.868 15.8 197.058 15.8C193.248 15.8 190.458 13.28 190.458 9.74C190.458 6.2 193.248 3.71 197.058 3.71C200.868 3.71 203.628 6.2 203.628 9.74ZM201.468 9.74C201.468 7.01 199.578 5.3 197.058 5.3C194.538 5.3 192.678 7.01 192.678 9.74C192.678 12.5 194.538 14.15 197.058 14.15C199.578 14.15 201.468 12.5 201.468 9.74ZM205.848 5.81L207.408 7.04C206.838 7.1 206.088 7.25 205.518 7.46C204.708 7.13 203.988 6.71 203.418 6.26C203.328 6.17 203.298 6.08 203.328 5.96L203.508 5.66C204.228 5.75 205.098 5.81 205.848 5.81ZM210.678 5.63V6.95C209.748 6.92 208.038 6.95 207.408 7.04L205.848 5.81C206.898 5.81 209.388 5.75 210.678 5.63ZM205.038 11.99L206.598 13.22C206.058 13.28 205.278 13.43 204.708 13.64C203.928 13.31 203.178 12.89 202.638 12.44C202.518 12.35 202.518 12.26 202.548 12.14L202.698 11.84C203.418 11.93 204.318 11.99 205.038 11.99ZM210.318 11.81V13.13C209.268 13.07 207.378 13.13 206.598 13.22L205.038 11.99C206.148 11.99 208.938 11.93 210.318 11.81ZM222.702 11.33H220.542V6.68C220.152 6.32 219.492 6.02 218.832 5.87L218.982 5.18C219.012 5.09 219.102 5.03 219.282 5.03C220.092 5.03 221.982 5.12 222.762 5.21L222.702 6.53V11.33ZM234.312 14.27V15.38C231.072 16.55 226.632 17.36 223.602 17.57C223.242 17.6 222.882 17.6 222.642 17.6C221.652 17.6 220.992 17.03 220.692 16.13C220.602 15.86 220.542 15.38 220.542 14.78V8.6H222.702V15.23C222.702 15.62 222.822 15.77 223.242 15.77C226.152 15.74 231.192 15.11 234.312 14.27ZM229.992 6.2L222.612 6.53V5.21C223.512 5.18 226.692 5.03 227.412 4.91L228.132 4.46C228.732 4.46 229.782 4.55 230.292 4.64C230.532 4.67 230.652 4.82 230.652 5.03C230.652 5.54 230.502 5.9 230.352 6.08C230.292 6.17 230.112 6.2 229.992 6.2ZM229.722 11.24L222.162 11.54V10.31C223.212 10.31 226.092 10.25 227.022 10.13L227.802 9.74C228.522 9.71 229.482 9.77 230.022 9.86C230.232 9.92 230.412 10.07 230.412 10.28C230.412 10.67 230.262 11 230.142 11.12C230.052 11.21 229.902 11.24 229.722 11.24ZM241.392 18.68H240.132C240.042 17.66 239.952 15.53 239.952 14.45V2.72C239.502 2.15 238.602 1.61 237.612 1.31L237.852 0.589998C237.882 0.47 238.002 0.439998 238.212 0.439998C239.202 0.47 241.002 0.829999 241.782 1.16C242.052 1.28 242.172 1.46 242.142 1.76L242.052 3.23V13.76C242.052 15.35 241.782 17.48 241.392 18.68ZM235.482 18.59H234.282C234.132 17.57 234.102 15.56 234.102 14.39V4.22C233.682 3.68 232.842 3.2 231.972 2.9L232.212 2.21C232.242 2.12 232.332 2.03 232.572 2.03C233.502 2.09 235.152 2.42 235.872 2.75C236.112 2.87 236.202 3.02 236.202 3.32L236.142 4.61V13.73C236.142 15.47 235.872 17.45 235.482 18.59ZM240.672 10.82L235.422 10.94V9.65L240.672 9.53V10.82ZM239.772 19.94V21.38C237.462 21.35 230.622 21.44 229.242 21.53C228.522 21.56 227.232 21.77 226.572 22.01C225.642 21.68 224.682 21.17 223.962 20.63C223.872 20.54 223.842 20.45 223.872 20.33L224.082 19.94C224.952 20.09 226.182 20.18 227.022 20.18C228.522 20.18 237.942 20.03 239.772 19.94ZM241.782 21.5L239.622 21.35L239.652 19.94L240.492 19.55C240.612 19.49 240.792 19.49 240.942 19.55C241.272 19.7 241.872 20.06 242.082 20.24C242.202 20.33 242.202 20.45 242.142 20.6L241.782 21.5ZM241.122 29.6H239.802C239.682 28.61 239.622 26.81 239.622 25.73V21.35H241.782L241.722 25.22C241.722 26.45 241.452 28.46 241.122 29.6ZM269.107 17.69H267.847C267.697 16.7 267.667 14.57 267.667 13.43V2.84C267.127 2.21 266.197 1.64 265.117 1.31L265.357 0.559999C265.387 0.47 265.477 0.439998 265.717 0.439998C266.797 0.47 268.657 0.859998 269.497 1.19C269.767 1.31 269.887 1.49 269.857 1.82L269.797 3.38V12.74C269.797 14.57 269.527 16.55 269.107 17.69ZM257.947 20.48L255.637 20.45C255.307 20.12 254.707 19.76 254.107 19.52L254.287 18.95C254.317 18.83 254.377 18.8 254.557 18.8C255.427 18.8 257.017 18.95 257.887 19.1L257.947 20.48ZM257.707 28.97H256.507C256.357 28.61 256.237 28.04 256.207 27.5L255.637 20.42L257.947 20.21L258.127 27.14C258.127 28.07 258.007 28.52 257.707 28.97ZM269.287 28.01L257.977 28.16L258.007 26.81C260.407 26.81 264.577 26.72 266.557 26.6L267.397 26.39C267.997 26.21 268.357 26.18 268.717 26.36L269.437 26.69C269.587 26.78 269.647 26.87 269.647 27.05C269.647 27.47 269.467 27.86 269.287 28.01ZM267.217 18.89L267.337 20.3C264.367 20.27 260.797 20.39 257.857 20.48V19.1C260.107 19.07 264.997 19.01 267.217 18.89ZM269.587 20.45L267.307 20.3L267.127 18.89L268.117 18.44C268.267 18.38 268.447 18.38 268.597 18.44C268.927 18.59 269.587 18.89 269.827 19.07C269.947 19.13 269.947 19.28 269.887 19.4L269.587 20.45ZM268.867 26.51H267.157L267.307 20.3L269.587 20.42C269.497 22.31 269.227 24.56 268.867 26.51ZM267.877 11.75V12.92C263.497 14.39 257.527 15.5 253.447 15.8C253.087 15.83 252.757 15.83 252.457 15.83C251.467 15.83 250.837 15.26 250.537 14.36C250.447 14.09 250.387 13.61 250.387 12.98V6.77H252.577V13.46C252.577 13.85 252.697 14 253.117 14C257.047 13.91 263.737 13.01 267.877 11.75ZM252.577 10.07H250.387V5.81C249.937 5.42 249.097 5.06 248.317 4.85L248.467 4.13C248.497 4.01 248.617 3.95 248.797 3.95C249.727 3.95 251.437 4.07 252.187 4.25C252.487 4.31 252.607 4.49 252.607 4.82L252.577 6.26V10.07Z" fill="white" fill-opacity="0.8"/>
</svg>
