<svg width="17" height="17" viewBox="0 0 17 17" fill="none" xmlns="http://www.w3.org/2000/svg">
<rect x="-0.15" y="0.15" width="4.63548" height="4.63548" transform="matrix(-1 0 0 1 4.63549 12.0646)" stroke="white"  stroke-width="0.3"/>
<rect x="-0.15" y="0.15" width="4.63548" height="4.63548" transform="matrix(-1 0 0 1 10.6677 12.0646)" stroke="white"  stroke-width="0.3"/>
<rect x="-0.15" y="0.15" width="4.63548" height="4.63548" transform="matrix(-1 0 0 1 16.7 12.0646)" stroke="white"  stroke-width="0.3"/>
<rect x="-0.15" y="0.15" width="4.63548" height="4.63548" transform="matrix(-1 0 0 1 4.63549 6.03223)" stroke="white" stroke-width="0.3"/>
<rect x="-0.15" y="0.15" width="4.63548" height="4.63548" transform="matrix(-1 0 0 1 10.6677 6.03223)" stroke="white" stroke-width="0.3"/>
<rect x="-0.15" y="0.15" width="4.63548" height="4.63548" transform="matrix(-1 0 0 1 16.7 6.03223)" stroke="white"  stroke-width="0.3"/>
<rect x="-0.15" y="0.15" width="4.63548" height="4.63548" transform="matrix(-1 0 0 1 4.63549 0)" stroke="white"  stroke-width="0.3"/>
<rect x="-0.15" y="0.15" width="4.63548" height="4.63548" transform="matrix(-1 0 0 1 10.6677 0)" stroke="white"  stroke-width="0.3"/>
<rect x="-0.15" y="0.15" width="4.63548" height="4.63548" transform="matrix(-1 0 0 1 16.7 0)" stroke="white"  stroke-width="0.3"/>
</svg>
